<?xml version="1.0" encoding="iso-8859-1"?>
<!-- Generator: Adobe Illustrator 30.3.0, SVG Export Plug-In . SVG Version: 9.03 Build 0)  -->
<svg version="1.1" id="Layer_1" xmlns="http://www.w3.org/2000/svg" xmlns:xlink="http://www.w3.org/1999/xlink" x="0px" y="0px"
	 width="1000px" height="1000px" viewBox="0 0 1000 1000" enable-background="new 0 0 1000 1000" xml:space="preserve">
<g>
	<path d="M587.748,399.694c-23.203-21.546-50.997-33.782-83.209-34.421c-24.568-0.487-47.484,4.125-68.723,16.915
		c-30.911,18.615-53.681,48.118-60.598,84.064c-5.106,26.533-2.967,53.705,6.142,79.051c9.557,26.592,30.126,33.116,33.065,64.855
		c1.363,14.716,12.227,23.545,26.157,24.509c12.715,0.88,24.794-4.301,29.919-16.933c1.194-2.944,0.202-7.977,4.441-9.765
		c2.716,15.68,14.77,25.567,29.125,24.727c14.341-0.839,24.167-11.281,27.508-26.359c4.828,17.553,14.69,27.319,31.029,25.446
		c15.073,1.023,28.02-10.787,28.366-25.986c0.371-16.329,7.411-29.659,17.402-42.092c15.507-19.297,18.372-43.654,19.062-67.678
		C628.511,458.486,615.016,425.014,587.748,399.694z M613.038,504.942c-1.425,17.427-4.364,32.555-14.088,47.483l-11.72,17.992
		c-7.408,11.372-10.902,23.851-9.892,37.598c-2.566,6.85-9.432,10.958-16.499,10.87c-19.131-5.424-10.199-28.395-27.86-29.019
		c-6.9-0.244-14.31,4.673-15.482,13.202c-1.134,8.251-5.164,14.662-13.498,15.483c-18.498,1.823-10.872-28.028-29.821-27.439
		c-16.181,0.503-13.677,18.362-19.352,25.563c-2.678,3.398-7.072,3.453-11.3,3.652c-8.111,0.381-14.557-5.458-14.864-13.74
		c-1.18-31.81-26.495-46.524-33.971-67.889c-7.017-20.053-9.113-42.047-6.729-63.068c4.138-36.487,28.767-68.122,58.42-83.467
		c36.97-19.131,77.663-16.704,111.211,3.19C596.564,418.462,616.689,460.28,613.038,504.942z"/>
	<path d="M449.562,487.958c-17.599,0-31.866,14.267-31.866,31.866c0,17.599,14.267,31.866,31.866,31.866
		s31.866-14.267,31.866-31.866C481.428,502.225,467.161,487.958,449.562,487.958z M461.708,533.553
		c-6.922,6.108-16.761,4.258-23.355-2.557c-4.281-4.425-7.348-9.81-6.059-16.47c1.018-5.257,5.768-10.693,12.306-11.723
		c6.76-1.065,12.65,2.273,17.347,7.182C468.867,517.217,468.7,527.382,461.708,533.553z"/>
	<path d="M554.969,485.754c-17.542,0-31.763,14.221-31.763,31.763c0,17.542,14.221,31.763,31.763,31.763
		s31.763-14.221,31.763-31.763C586.732,499.975,572.511,485.754,554.969,485.754z M571.019,525.832
		c-2.116,5.709-7.369,8.573-12.226,9.032c-11.082,1.047-21.576-9.011-21.104-20.206c0.232-5.503,3.194-10.619,8.753-13.118
		c7.09-3.188,14.19-0.29,19.558,4.499C571.339,510.803,573.888,518.093,571.019,525.832z"/>
	<path d="M506.881,545.685c-8.81-7.782-17.15,7.617-21.146,20.389c-0.995,3.181,0.916,9.229,4.209,9.966
		c9.089,2.035,17.744,0.933,27.042-0.94C523.428,566.979,514.699,552.591,506.881,545.685z"/>
	<path d="M704.957,295.042C650.211,240.296,577.423,210.146,500,210.146c-77.422,0-150.211,30.15-204.958,84.896
		C240.296,349.789,210.146,422.578,210.146,500c0,77.423,30.15,150.211,84.896,204.957c54.747,54.746,127.535,84.896,204.958,84.896
		c77.423,0,150.211-30.15,204.957-84.896S789.854,577.423,789.854,500C789.854,422.578,759.703,349.789,704.957,295.042z
		 M690.815,690.815C639.847,741.784,572.08,769.854,500,769.854c-72.081,0-139.847-28.069-190.815-79.038
		C258.216,639.847,230.146,572.08,230.146,500c0-72.081,28.07-139.847,79.038-190.815c50.969-50.968,118.735-79.038,190.815-79.038
		c72.08,0,139.847,28.07,190.815,79.038c50.969,50.969,79.038,118.735,79.038,190.815
		C769.854,572.08,741.784,639.847,690.815,690.815z"/>
</g>
</svg>
