<?xml version="1.0" encoding="iso-8859-1"?>
<!-- Generator: Adobe Illustrator 30.3.0, SVG Export Plug-In . SVG Version: 9.03 Build 0)  -->
<svg version="1.1" id="Layer_1" xmlns="http://www.w3.org/2000/svg" xmlns:xlink="http://www.w3.org/1999/xlink" x="0px" y="0px"
	 width="908px" height="1060px" viewBox="0 0 908 1060" enable-background="new 0 0 908 1060" xml:space="preserve">
<g>
	<g>
		<path d="M726.829,518.2c0,150.015-121.611,271.626-271.626,271.626S183.576,668.215,183.576,518.2
			s121.611-271.626,271.626-271.626S726.829,368.185,726.829,518.2z M707.935,518.111c0-139.563-113.138-252.701-252.701-252.701
			S202.533,378.548,202.533,518.111s113.138,252.701,252.701,252.701S707.935,657.674,707.935,518.111z"/>
		<path d="M485.003,627.431c-3.341,15.078-13.166,25.519-27.508,26.359c-14.355,0.84-26.409-9.047-29.125-24.727
			c-4.239,1.788-3.247,6.821-4.441,9.765c-5.125,12.632-17.204,17.813-29.919,16.933c-13.93-0.964-24.794-9.793-26.157-24.509
			c-2.939-31.739-23.508-38.263-33.065-64.855c-9.109-25.346-11.248-52.518-6.142-79.051c6.918-35.946,29.688-65.45,60.598-84.064
			c21.238-12.79,44.155-17.402,68.723-16.915c32.212,0.639,60.006,12.875,83.209,34.421c27.268,25.32,40.763,58.792,39.685,96.334
			c-0.69,24.024-3.556,48.381-19.062,67.678c-9.991,12.433-17.031,25.763-17.402,42.092c-0.346,15.199-13.293,27.009-28.366,25.986
			C499.693,654.75,489.831,644.984,485.003,627.431z M470.926,624.161c1.172-8.529,8.582-13.446,15.482-13.202
			c17.661,0.624,8.729,23.594,27.86,29.019c7.068,0.089,13.933-4.02,16.499-10.87c-1.01-13.747,2.484-26.226,9.892-37.598
			l11.72-17.992c9.724-14.928,12.663-30.056,14.088-47.483c3.651-44.662-16.474-86.48-55.444-109.59
			c-33.549-19.895-74.241-22.321-111.211-3.19c-29.653,15.344-54.282,46.98-58.42,83.467c-2.384,21.022-0.288,43.015,6.729,63.068
			c7.476,21.365,32.791,36.079,33.971,67.889c0.307,8.282,6.754,14.121,14.864,13.74c4.228-0.199,8.622-0.254,11.3-3.652
			c5.675-7.201,3.171-25.059,19.352-25.563c18.95-0.589,11.323,29.262,29.821,27.439
			C465.761,638.823,469.792,632.412,470.926,624.161z"/>
		<path d="M434.857,540.918c0,17.599-14.267,31.866-31.866,31.866s-31.866-14.267-31.866-31.866
			c0-17.599,14.267-31.866,31.866-31.866S434.857,523.318,434.857,540.918z M415.375,531.078
			c-4.697-4.909-10.587-8.247-17.347-7.182c-6.538,1.03-11.288,6.466-12.306,11.723c-1.289,6.66,1.778,12.046,6.059,16.47
			c6.594,6.816,16.433,8.665,23.355,2.557C422.129,548.476,422.295,538.31,415.375,531.078z"/>
		<path d="M540.161,538.611c0,17.542-14.221,31.763-31.763,31.763c-17.542,0-31.763-14.221-31.763-31.763
			c0-17.542,14.221-31.763,31.763-31.763C525.94,506.848,540.161,521.068,540.161,538.611z M524.448,546.926
			c2.869-7.739,0.32-15.029-5.019-19.793c-5.367-4.789-12.467-7.686-19.558-4.499c-5.559,2.499-8.521,7.615-8.753,13.118
			c-0.472,11.195,10.021,21.253,21.104,20.206C517.079,555.499,522.332,552.635,524.448,546.926z"/>
		<path d="M470.414,596.194c-9.298,1.873-17.953,2.976-27.042,0.94c-3.293-0.737-5.204-6.786-4.209-9.966
			c3.996-12.771,12.336-28.171,21.146-20.389C468.128,573.685,476.856,588.072,470.414,596.194z"/>
	</g>
</g>
</svg>
