<?xml version="1.0" encoding="iso-8859-1"?>
<!-- Generator: Adobe Illustrator 30.3.0, SVG Export Plug-In . SVG Version: 9.03 Build 0)  -->
<svg version="1.1" id="Layer_1" xmlns="http://www.w3.org/2000/svg" xmlns:xlink="http://www.w3.org/1999/xlink" x="0px" y="0px"
	 width="1920px" height="560.874px" viewBox="0 0 1920 560.874" enable-background="new 0 0 1920 560.874" xml:space="preserve">
<g>
	<path fill="#FFFFFF" d="M636.924,211.656c29.637,0,52.844,6.151,69.34,18.733c16.496,12.302,24.605,29.637,24.605,52.005
		c0,16.217-4.194,29.637-12.861,40.262c-8.667,10.345-21.249,17.615-37.466,21.249c40.542,6.99,60.952,28.239,60.952,64.028
		c0,23.486-8.667,41.94-26.282,55.36c-17.335,13.421-42.219,20.131-74.653,20.131H537.387v-271.49h99.537V211.656z M581.844,326.85
		h56.199c15.378,0,27.121-3.355,35.509-10.345c8.388-6.99,12.582-16.496,12.582-28.799c0-12.023-4.194-21.529-12.582-28.519
		c-8.388-6.99-20.131-10.345-35.509-10.345h-56.199V326.85L581.844,326.85z M581.844,445.68h58.995
		c17.615,0,31.035-3.635,40.542-10.625c9.506-6.99,14.259-17.055,14.259-29.637s-4.753-23.486-14.259-30.756
		c-9.506-7.269-22.927-10.904-40.262-10.904h-58.995v81.922H581.844z"/>
	<path fill="#FFFFFF" d="M759.948,330.485c8.108-15.378,19.572-27.401,34.111-35.789c14.539-8.388,31.315-12.582,50.328-12.582
		c18.733,0,36.068,3.914,50.607,11.743c14.539,7.829,26.003,18.733,34.391,32.993c8.388,14.259,12.861,31.035,12.861,50.048
		c0,5.312-0.28,10.345-1.118,15.937H791.262v2.237c1.118,17.335,6.431,31.035,16.217,41.101
		c9.786,10.065,22.927,15.098,39.144,15.098c12.861,0,23.766-3.076,32.713-9.227c8.667-6.151,14.539-14.539,17.335-25.723h41.94
		c-3.635,20.131-13.421,36.627-29.358,49.768c-15.937,12.861-35.789,19.292-59.554,19.292c-20.69,0-38.864-4.194-54.242-12.582
		c-15.378-8.388-27.401-20.131-35.789-35.509s-12.582-32.993-12.582-53.124C747.925,364.037,751.839,345.863,759.948,330.485
		L759.948,330.485z M900.026,362.359c-1.678-14.539-7.549-25.723-17.335-33.831c-9.786-8.108-21.809-12.302-36.627-12.302
		c-13.7,0-25.443,4.194-35.509,12.582c-10.065,8.388-15.657,19.572-17.335,33.552H900.026L900.026,362.359z"/>
	<path fill="#FFFFFF" d="M1150.826,446.798v36.348h-22.088c-12.861,0-22.368-2.796-27.96-8.108
		c-5.592-5.312-8.388-13.421-8.388-23.766c-15.098,22.647-36.907,34.111-65.426,34.111c-22.368,0-39.982-5.033-53.403-15.378
		c-13.421-10.345-20.131-24.605-20.131-42.779c0-20.411,7.27-36.068,21.809-47.252c14.539-10.904,35.509-16.496,63.189-16.496
		h50.048v-12.023c0-11.184-3.914-19.851-11.743-26.282c-7.829-6.431-18.453-9.506-32.154-9.506c-12.023,0-22.088,2.796-30.197,7.829
		c-7.829,5.312-12.582,12.302-14.259,21.249h-41.101c1.957-19.851,10.904-35.229,26.282-46.413
		c15.378-10.904,35.789-16.496,60.952-16.496c26.562,0,47.252,6.151,61.791,18.733c14.539,12.302,21.809,30.197,21.809,53.403
		v78.287c0,9.227,4.474,13.98,13.141,13.98L1150.826,446.798L1150.826,446.798z M1087.916,394.793h-52.005
		c-12.862,0-22.927,2.516-29.917,7.549c-6.99,5.033-10.345,12.582-10.345,22.368c0,8.667,3.355,15.378,9.786,20.69
		c6.71,5.312,15.657,7.829,26.841,7.829c17.335,0,30.756-4.753,40.542-13.98c9.786-9.227,14.539-21.809,14.819-37.186v-7.27
		H1087.916z"/>
	<path fill="#FFFFFF" d="M1170.957,321.538h-34.391v-36.907h34.391v-55.36h42.219v55.36h47.811v36.907h-47.811v103.451
		c0,7.829,1.677,13.141,4.753,16.496c3.075,3.355,8.388,4.753,15.937,4.753h31.874v36.907h-40.262
		c-19.013,0-32.713-4.473-41.38-13.141c-8.667-8.667-12.861-22.368-12.861-40.821L1170.957,321.538L1170.957,321.538z"/>
	<path fill="#FFFFFF" d="M1435.177,294.417c14.259,8.108,25.443,19.851,33.272,35.229c8.108,15.378,12.023,33.552,12.023,54.242
		s-3.914,38.025-12.023,53.403s-19.013,27.401-33.272,35.789c-14.26,8.388-30.476,12.582-48.371,12.582
		c-14.819,0-27.401-2.796-38.305-8.108c-10.904-5.312-19.572-12.861-26.003-22.088v105.409h-41.94V284.631h36.348l5.033,29.358
		c15.937-21.249,37.746-31.874,64.867-31.874C1404.701,282.394,1420.918,286.309,1435.177,294.417z M1421.756,431.7
		c10.625-12.302,16.217-28.239,16.217-47.811s-5.312-35.509-16.217-47.811c-10.625-12.023-24.884-18.174-42.219-18.174
		s-31.315,5.871-41.94,18.174c-10.625,12.023-15.937,27.68-15.937,47.252c0,19.292,5.312,36.068,15.937,48.37
		c10.625,12.302,24.605,18.733,41.94,18.733C1397.152,450.153,1411.132,444.002,1421.756,431.7z"/>
	<path fill="#FFFFFF" d="M1539.747,473.08c-15.378-8.388-27.401-20.411-35.789-35.789s-12.582-33.272-12.582-53.403
		c0-20.131,4.194-37.466,12.582-52.844s20.411-27.401,35.789-35.789c15.378-8.388,32.993-12.861,52.844-12.861
		c19.851,0,37.466,4.194,52.844,12.861c15.378,8.388,27.401,20.411,35.789,35.789s12.582,32.993,12.582,52.844
		s-4.194,38.025-12.582,53.403s-20.411,27.401-35.789,35.789c-15.378,8.388-32.993,12.582-52.844,12.582
		C1572.739,485.662,1555.125,481.468,1539.747,473.08z M1635.09,431.42c10.625-12.302,16.217-28.239,16.217-47.532
		c0-19.292-5.312-35.229-16.217-47.532c-10.625-12.302-24.884-18.453-42.499-18.453c-17.615,0-31.595,6.151-42.219,18.453
		c-10.625,12.302-15.937,28.239-15.937,47.532c0,19.292,5.312,35.229,15.937,47.532c10.625,12.302,24.605,18.453,42.219,18.453
		S1624.465,443.722,1635.09,431.42z"/>
	<path fill="#FFFFFF" d="M1814.033,284.631v39.144H1795.3c-17.335,0-29.917,5.592-37.746,16.776
		c-7.829,11.184-11.743,25.443-11.743,42.778v99.817h-41.94V284.631h37.187l4.753,29.917c5.592-9.227,13.141-16.496,22.088-21.809
		c8.947-5.312,21.249-7.829,36.348-7.829L1814.033,284.631L1814.033,284.631z"/>
	<path fill="#FFFFFF" d="M1825.496,229.27h41.94v55.36h48.091v36.907h-48.091v103.451c0,7.829,1.677,13.141,4.753,16.496
		c3.075,3.355,8.388,4.753,15.937,4.753H1920v36.907h-40.262c-19.013,0-32.713-4.473-41.101-13.141
		c-8.667-8.667-12.861-22.368-12.861-40.821L1825.496,229.27L1825.496,229.27z"/>
	<path fill="#FFFFFF" d="M394.792,346.981c0,78.567-62.91,142.036-142.875,142.036c-79.685,0-142.036-62.071-142.036-142.036
		c0-37.746,14.259-71.018,37.187-96.182l-96.461,96.182L0,296.654l108.764-107.366c14.819-14.819,22.368-33.831,22.368-54.801V0
		h71.298v134.487c0,41.38-14.819,76.33-43.338,104.849l-3.076,3.076c25.164-22.927,59.554-36.907,96.182-36.907
		C333.281,205.784,395.072,269.812,394.792,346.981L394.792,346.981z M330.205,346.981c0-42.219-35.229-76.33-78.287-76.33
		s-77.449,35.789-77.449,76.33s34.391,77.169,77.449,77.169C295.255,424.15,330.205,388.082,330.205,346.981z"/>
</g>
</svg>
