<?xml version="1.0" encoding="iso-8859-1"?>
<!-- Generator: Adobe Illustrator 30.3.0, SVG Export Plug-In . SVG Version: 9.03 Build 0)  -->
<svg version="1.1" id="US-UK" xmlns="http://www.w3.org/2000/svg" xmlns:xlink="http://www.w3.org/1999/xlink" x="0px" y="0px"
	 width="124.284px" height="26.878px" viewBox="0 0 124.284 26.878" enable-background="new 0 0 124.284 26.878"
	 xml:space="preserve">
<g>
	<g>
		<path fill="#FFFFFF" d="M38.357,20.526h-4.733l-1.137,3.356h-2.005l4.483-12.419h2.083l4.483,12.419h-2.039L38.357,20.526z
			 M34.114,18.977h3.752l-1.85-5.448h-0.052L34.114,18.977z"/>
		<path fill="#FFFFFF" d="M51.215,19.356c0,2.813-1.506,4.621-3.778,4.621c-1.29,0-2.314-0.577-2.849-1.584h-0.043v4.484h-1.858
			V14.829h1.799v1.506h0.034c0.517-0.972,1.618-1.601,2.883-1.601C49.7,14.734,51.215,16.551,51.215,19.356z M49.304,19.356
			c0-1.833-0.947-3.038-2.393-3.038c-1.42,0-2.375,1.23-2.375,3.038c0,1.824,0.955,3.046,2.375,3.046
			C48.357,22.402,49.304,21.206,49.304,19.356z"/>
		<path fill="#FFFFFF" d="M61.179,19.356c0,2.813-1.506,4.621-3.778,4.621c-1.29,0-2.314-0.577-2.849-1.584h-0.043v4.484h-1.858
			V14.829h1.799v1.506h0.034c0.517-0.972,1.618-1.601,2.883-1.601C59.665,14.734,61.179,16.551,61.179,19.356z M59.269,19.356
			c0-1.833-0.947-3.038-2.393-3.038c-1.42,0-2.375,1.23-2.375,3.038c0,1.824,0.955,3.046,2.375,3.046
			C58.322,22.402,59.269,21.206,59.269,19.356z"/>
		<path fill="#FFFFFF" d="M62.684,11.464h1.859v12.419h-1.859V11.464z"/>
		<path fill="#FFFFFF" d="M74.219,21.223c-0.25,1.644-1.851,2.771-3.898,2.771c-2.634,0-4.269-1.765-4.269-4.596
			c0-2.84,1.644-4.682,4.19-4.682c2.505,0,4.08,1.721,4.08,4.466v0.637h-6.395v0.112c0,1.549,0.973,2.565,2.436,2.565
			c1.032,0,1.842-0.49,2.091-1.273C72.455,21.223,74.219,21.223,74.219,21.223z M67.937,18.521h4.526
			c-0.043-1.386-0.93-2.298-2.221-2.298C68.961,16.223,68.032,17.153,67.937,18.521z"/>
		<path fill="#FFFFFF" d="M90.366,23.882v-9.14h-0.061l-3.743,9.045h-1.429l-3.753-9.045h-0.06v9.14h-1.756V11.464h2.229
			l4.019,9.803h0.068l4.011-9.803h2.237v12.419H90.366z"/>
		<path fill="#FFFFFF" d="M102.04,23.882h-1.781v-1.558h-0.043c-0.517,1.084-1.421,1.661-2.806,1.661
			c-1.971,0-3.176-1.273-3.176-3.348v-5.81h1.858v5.448c0,1.377,0.654,2.108,1.937,2.108c1.343,0,2.151-0.93,2.151-2.341v-5.216
			h1.859V23.882z"/>
		<path fill="#FFFFFF" d="M107.334,14.726c2.006,0,3.442,1.109,3.485,2.71h-1.747c-0.077-0.8-0.757-1.29-1.79-1.29
			c-1.007,0-1.678,0.464-1.678,1.17c0,0.542,0.447,0.903,1.386,1.136l1.523,0.354c1.824,0.438,2.513,1.109,2.513,2.435
			c0,1.635-1.549,2.754-3.761,2.754c-2.135,0-3.571-1.094-3.709-2.746h1.841c0.13,0.869,0.826,1.334,1.954,1.334
			c1.11,0,1.807-0.456,1.807-1.179c0-0.56-0.344-0.86-1.29-1.102l-1.618-0.396c-1.635-0.396-2.461-1.231-2.461-2.487
			C103.789,15.819,105.225,14.726,107.334,14.726z"/>
		<path fill="#FFFFFF" d="M112.48,12.445c0-0.594,0.481-1.067,1.075-1.067c0.603,0,1.085,0.474,1.085,1.067
			c0,0.585-0.482,1.059-1.085,1.059C112.962,13.504,112.48,13.03,112.48,12.445z M112.627,14.829h1.858v9.054h-1.858V14.829z"/>
		<path fill="#FFFFFF" d="M122.494,17.944c-0.163-0.955-0.912-1.669-2.134-1.669c-1.429,0-2.376,1.196-2.376,3.081
			c0,1.928,0.956,3.089,2.393,3.089c1.153,0,1.911-0.576,2.117-1.626h1.79c-0.206,1.901-1.729,3.176-3.924,3.176
			c-2.582,0-4.269-1.765-4.269-4.639c0-2.815,1.687-4.639,4.251-4.639c2.323,0,3.77,1.463,3.925,3.227L122.494,17.944
			L122.494,17.944z"/>
	</g>
	<g>
		<g id="art_116_">
			<path id="XMLID_691_" fill="#FFFFFF" d="M24.665,3.353c-0.244-0.621-0.809-1.496-1.609-2.112
				c-0.462-0.356-1.014-0.696-1.772-0.921C20.476,0.081,19.481,0,18.243,0H6.92C5.681,0,4.687,0.081,3.879,0.32
				C3.121,0.545,2.569,0.885,2.107,1.241c-0.8,0.616-1.365,1.491-1.609,2.112C0.005,4.605,0,6.025,0,6.92v11.323
				c0,0.894,0.005,2.315,0.498,3.566c0.245,0.621,0.809,1.496,1.609,2.112c0.462,0.356,1.014,0.696,1.772,0.921
				c0.808,0.239,1.803,0.32,3.041,0.32h11.323c1.238,0,2.233-0.081,3.041-0.32c0.758-0.225,1.309-0.565,1.772-0.921
				c0.8-0.616,1.365-1.491,1.609-2.112c0.493-1.252,0.498-2.672,0.498-3.566V6.92C25.163,6.025,25.158,4.605,24.665,3.353z
				 M18.356,17.307c-0.065,0.31-0.184,0.601-0.367,0.863c-0.182,0.261-0.416,0.476-0.688,0.637
				c-0.276,0.163-0.565,0.256-0.874,0.318c-0.58,0.117-0.977,0.143-1.349,0.068c-0.36-0.072-0.664-0.238-0.908-0.461
				c-0.361-0.331-0.586-0.778-0.635-1.246c-0.058-0.548,0.125-1.133,0.536-1.564c0.208-0.217,0.468-0.39,0.816-0.525
				c0.364-0.141,0.766-0.226,1.384-0.35c0.163-0.033,0.326-0.066,0.488-0.099c0.214-0.043,0.398-0.098,0.546-0.279
				c0.149-0.182,0.152-0.401,0.152-0.62l0-5.545c0-0.424-0.19-0.54-0.595-0.462c-0.289,0.057-6.506,1.31-6.506,1.31
				c-0.351,0.085-0.474,0.199-0.474,0.634l0,8.125c0,0.319-0.017,0.601-0.084,0.92c-0.065,0.31-0.184,0.601-0.367,0.863
				c-0.182,0.261-0.416,0.476-0.688,0.637c-0.276,0.163-0.565,0.26-0.874,0.323c-0.58,0.117-0.977,0.143-1.349,0.068
				c-0.359-0.072-0.664-0.242-0.908-0.466c-0.361-0.331-0.571-0.778-0.621-1.246c-0.058-0.548,0.11-1.133,0.521-1.564
				c0.208-0.218,0.468-0.39,0.816-0.525c0.364-0.141,0.766-0.226,1.384-0.35c0.163-0.033,0.326-0.066,0.488-0.098
				c0.214-0.043,0.398-0.098,0.546-0.279c0.148-0.181,0.165-0.398,0.165-0.616c0-1.719,0-9.357,0-9.357
				c0-0.126,0.011-0.21,0.017-0.252c0.03-0.197,0.109-0.366,0.252-0.486c0.118-0.1,0.271-0.168,0.466-0.21L9.65,5.474l7.479-1.509
				c0.065-0.013,0.605-0.109,0.666-0.115c0.404-0.035,0.631,0.231,0.631,0.661l0,11.87C18.427,16.701,18.423,16.987,18.356,17.307z"
				/>
		</g>
	</g>
	<g>
		<g>
			<path fill="#FFFFFF" d="M33.48,1.596c1.184,0,1.998,0.818,1.998,2.019c0,1.183-0.84,1.997-2.027,1.997h-1.401v2.039h-0.94V1.596
				H33.48z M32.049,4.785h1.184c0.81,0,1.284-0.419,1.284-1.17c0-0.769-0.458-1.188-1.284-1.188h-1.184V4.785z"/>
			<path fill="#FFFFFF" d="M36.702,3.082h0.868v0.701h0.067c0.13-0.449,0.638-0.776,1.233-0.776c0.135,0,0.307,0.012,0.403,0.037
				v0.89c-0.076-0.025-0.345-0.055-0.504-0.055c-0.684,0-1.167,0.433-1.167,1.074v2.698h-0.901V3.082z"/>
			<path fill="#FFFFFF" d="M44.012,6.418c-0.205,0.818-0.935,1.321-1.98,1.321c-1.309,0-2.11-0.898-2.11-2.357
				c0-1.461,0.818-2.388,2.106-2.388c1.271,0,2.039,0.868,2.039,2.304v0.314H40.84v0.051c0.029,0.801,0.495,1.309,1.217,1.309
				c0.546,0,0.919-0.197,1.087-0.554H44.012z M40.84,4.945h2.308c-0.021-0.718-0.457-1.184-1.124-1.184S40.891,4.231,40.84,4.945z"
				/>
			<path fill="#FFFFFF" d="M45.288,5.654V4.768h2.752v0.886H45.288z"/>
			<path fill="#FFFFFF" d="M49.223,6.359c0-0.822,0.612-1.297,1.699-1.364l1.238-0.071V4.529c0-0.482-0.319-0.755-0.936-0.755
				c-0.504,0-0.853,0.185-0.953,0.508H49.4c0.092-0.785,0.83-1.288,1.867-1.288c1.146,0,1.791,0.57,1.791,1.535v3.122H52.19V7.01
				h-0.071c-0.272,0.457-0.772,0.718-1.372,0.718C49.866,7.727,49.223,7.194,49.223,6.359z M52.161,5.969V5.587l-1.116,0.071
				C50.415,5.7,50.13,5.914,50.13,6.317c0,0.411,0.357,0.65,0.848,0.65C51.657,6.968,52.161,6.535,52.161,5.969z"/>
			<path fill="#FFFFFF" d="M54.238,5.364c0-1.443,0.742-2.357,1.896-2.357c0.625,0,1.153,0.298,1.401,0.801h0.067V1.298h0.901v6.352
				H57.64V6.929h-0.071c-0.272,0.5-0.806,0.798-1.435,0.798C54.971,7.727,54.238,6.812,54.238,5.364z M55.169,5.364
				c0,0.97,0.458,1.553,1.222,1.553c0.76,0,1.229-0.592,1.229-1.548c0-0.953-0.475-1.553-1.229-1.553
				C55.631,3.816,55.169,4.403,55.169,5.364z"/>
			<path fill="#FFFFFF" d="M59.75,5.364c0-1.443,0.742-2.357,1.896-2.357c0.625,0,1.153,0.298,1.401,0.801h0.067V1.298h0.901v6.352
				h-0.864V6.929h-0.071c-0.272,0.5-0.806,0.798-1.435,0.798C60.483,7.727,59.75,6.812,59.75,5.364z M60.68,5.364
				c0,0.97,0.458,1.553,1.222,1.553c0.76,0,1.229-0.592,1.229-1.548c0-0.953-0.475-1.553-1.229-1.553
				C61.142,3.816,60.68,4.403,60.68,5.364z"/>
			<path fill="#FFFFFF" d="M67.737,5.364c0-1.473,0.822-2.37,2.156-2.37c1.33,0,2.152,0.898,2.152,2.37
				c0,1.481-0.817,2.375-2.152,2.375C68.554,7.739,67.737,6.845,67.737,5.364z M71.119,5.364c0-0.99-0.445-1.569-1.226-1.569
				c-0.784,0-1.226,0.579-1.226,1.569c0,0.999,0.441,1.574,1.226,1.574C70.674,6.938,71.119,6.359,71.119,5.364z"/>
			<path fill="#FFFFFF" d="M73.249,3.082h0.869v0.726h0.066c0.223-0.508,0.676-0.813,1.364-0.813c1.02,0,1.581,0.612,1.581,1.699
				v2.958h-0.901V4.92c0-0.734-0.319-1.1-0.986-1.1s-1.091,0.445-1.091,1.158v2.673h-0.902V3.082z"/>
		</g>
	</g>
</g>
</svg>
