<?xml version="1.0" encoding="iso-8859-1"?>
<!-- Generator: Adobe Illustrator 30.3.0, SVG Export Plug-In . SVG Version: 9.03 Build 0)  -->
<svg version="1.1" id="Layer_1" xmlns="http://www.w3.org/2000/svg" xmlns:xlink="http://www.w3.org/1999/xlink" x="0px" y="0px"
	 width="633px" height="84px" viewBox="0 0 633 84" enable-background="new 0 0 633 84" xml:space="preserve">
<path fill-rule="evenodd" clip-rule="evenodd" fill="#FFFFFF" d="M1.403,46.386c0,0,2.296-0.379,3.242,0.61
	c0.947,0.988,0.326,3.033-0.93,3.067c-1.257,0.034-2.418,0.266-3.243-0.61C-0.352,48.577-0.131,46.818,1.403,46.386z M26.328,60.34
	c-0.221,0.023-0.455-0.078-0.695-0.249c-1.646-2.294-2.241-10.139-2.997-10.607c-0.784-0.485-3.621,4.347-9.266,3.827
	c-2.36-0.217-4.762-1.747-6.177-2.806c0.132-1.783,0.154-5.945,3.67-4.591c2.136,0.822,5.792,3.08,9.004-0.975
	c3.551-4.484,5.509-3.181,6.684-2.207c1.174,0.975,0.392,6.043,2.143,4.627c1.752-1.417,8.824-10.215,8.824-10.215
	s5.475-5.522,6.314,0.283c0.839,5.805,4.409,12.239,5.355,12.056c0.947-0.184,11.961-22.57,13.539-24.014
	c1.578-1.445,6.888-1.255,6.636,2.45c-0.253,3.705-0.793,26.735-0.793,26.735s-0.623,6.49,0.392,3.021
	c0.421-1.438,0.873-2.735,1.438-4.249c2.718-8.703,7.349-23.57,9.656-31.231c0.531-1.833,0.988-3.407,1.342-4.616l0.001-0.003
	c0.138-0.56,0.275-1.004,0.412-1.401c0.193-0.649,0.323-1.079,0.363-1.192c0.103-0.286,0.392-0.505,0.799-0.665
	c0.408-0.257,0.845-0.27,1.341-0.283c1.281-0.115,2.928,0.052,4.408,0.474c0.431,0.017,0.901,0.155,1.344,0.474v0
	c0,0,0.027,0.016,0.064,0.041c0.01,0.008,0.021,0.013,0.031,0.022c0.092,0.064,0.243,0.192,0.417,0.401
	c0.005,0.007,0.01,0.015,0.017,0.021c0.072,0.088,0.144,0.193,0.218,0.311c0.827,1.213,1.335,3.45,0.826,7.417
	c-1.27,9.898-2.253,30.26-2.253,30.26s-0.196,0.974,1.845-3.315c0.071-0.149,0.162-0.278,0.246-0.415
	c0.11-0.073,0.234-0.177,0.387-0.361c1.26-1.503,4.648-2.385,6.998-2.368c0.99,0.12,1.82,0.369,2.315,0.682
	c0.928,1.411,0.38,6.62,0.38,6.62c-1.954,0.181-5.68,1.233-7.001,1.427c-1.321,0.195-3.328,8.773-6.117,7.895
	c-2.789-0.877-9.005-4.776-9.005-5.312c0-0.467,0.489-6.165,0.616-7.636c0.009-0.102,0.017-0.196,0.025-0.29
	c0.003-0.027,0.006-0.059,0.006-0.059l0,0.002c0.09-1.158,0.01-1.664-0.525-0.508c-0.46,0.995-2.463,7.357-4.695,14.287
	c-0.236,0.605-4.455,13.375-5.009,14.932c-0.661,1.806-1.217,3.188-1.6,3.903c-0.584,0.791-1.371,1.287-2.469,0.955
	c-2.74-0.828-6.21-4.615-6.243-5.554c-0.066-5.299,0.257-33.792-1.027-31.418c-1.319,2.435-11.571,19.33-11.571,19.33
	c-0.172,0.029-0.299,0.024-0.45,0.038c-0.726-0.079-1.851-0.315-2.162-1.01c-0.017-0.041-0.04-0.078-0.055-0.121
	c-0.015-0.043-0.032-0.092-0.057-0.17c-0.139-0.465-0.196-0.97-0.319-1.384c-0.459-1.548-1.193-3.766-1.963-6.023
	c-1.18-3.848-2.396-7.784-2.596-8.218c-0.391-0.85-0.961-0.492-1.473-0.001C35.579,51.305,30.718,59.872,26.328,60.34z"/>
<path fill-rule="evenodd" clip-rule="evenodd" fill="#FFFFFF" d="M238.548,78.656h-16.382v-8.095h-0.251
	c-4.063,6.254-9.479,9.386-16.277,9.386c-12.356,0-18.515-7.457-18.515-22.353V25.524h16.386v30.621
	c0,7.492,2.984,11.249,8.948,11.249c2.942,0,5.286-1.03,7.064-3.083c1.775-2.056,2.645-4.85,2.645-8.377V25.524h16.382V78.656z
	 M181.265,78.656h-15.552v-7.637h-0.212c-3.568,5.951-8.856,8.928-15.853,8.928c-5.183,0-9.248-1.453-12.215-4.374
	C134.471,72.653,133,68.737,133,63.866c0-10.307,6.123-16.261,18.356-17.855l14.466-1.912c0-5.806-3.164-8.716-9.482-8.716
	c-6.335,0-12.373,1.884-18.09,5.654V28.691c2.291-1.185,5.416-2.212,9.39-3.118c3.96-0.903,7.583-1.344,10.846-1.344
	c15.178,0,22.779,7.563,22.779,22.67V78.656z M165.822,57.065v-3.58l-9.679,1.242c-5.339,0.695-8.005,3.101-8.005,7.228
	c0,1.862,0.64,3.4,1.938,4.586c1.315,1.185,3.072,1.788,5.289,1.788c3.09,0,5.593-1.062,7.544-3.189
	C164.843,63.012,165.822,60.325,165.822,57.065z M298.176,78.656H281.74V71.34h-0.194c-3.744,5.739-9.249,8.607-16.493,8.607
	c-6.657,0-12.017-2.339-16.065-7.03c-4.062-4.677-6.091-11.231-6.091-19.64c0-8.79,2.238-15.817,6.714-21.115
	c4.475-5.295,10.33-7.933,17.577-7.933c6.866,0,11.642,2.444,14.358,7.365h0.194V0h16.436V78.656z M282.062,52.815v-4.004
	c0-3.45-1.015-6.321-3.019-8.607c-2.009-2.286-4.632-3.418-7.849-3.418c-3.638,0-6.494,1.415-8.538,4.268
	c-2.04,2.868-3.069,6.783-3.069,11.76c0,4.677,0.994,8.272,2.967,10.783c1.986,2.536,4.719,3.795,8.212,3.795
	c3.345,0,6.056-1.33,8.153-3.989C281.015,60.734,282.062,57.21,282.062,52.815z M313.657,17.111c-2.768,0-5.041-0.818-6.812-2.462
	c-1.779-1.647-2.648-3.651-2.648-6.039c0-2.469,0.869-4.466,2.648-6.025c1.771-1.559,4.044-2.339,6.812-2.339
	c2.807,0,5.098,0.78,6.838,2.339c1.76,1.559,2.626,3.556,2.626,6.025c0,2.494-0.866,4.529-2.626,6.123
	C318.755,16.31,316.464,17.111,313.657,17.111z M321.612,60.646c0,2.247,0.534,3.968,1.616,5.118c1.081,1.15,2.52,1.735,4.313,1.735
	c0.905,0,1.813-0.088,2.701-0.265c0.901-0.162,1.81-0.342,2.715-0.519V78.25c-1.987,0.508-4.066,0.935-6.268,1.256
	C324.49,79.841,322.178,80,319.802,80c-2.185,0-4.172-0.356-5.964-1.079c-1.775-0.727-3.302-1.771-4.586-3.153
	c-1.251-1.362-2.234-3.012-2.924-4.942c-0.692-1.944-1.046-4.127-1.046-6.55V25.524h16.33V60.646z M358.928,79.947
	c-8.878,0-15.853-2.48-20.93-7.436c-5.08-4.959-7.611-11.711-7.611-20.212c0-8.783,2.623-15.672,7.894-20.631
	c5.275-4.959,12.392-7.439,21.375-7.439c8.842,0,15.782,2.48,20.806,7.439c5.023,4.959,7.541,11.527,7.541,19.697
	c0,8.818-2.588,15.795-7.778,20.914C375.042,77.397,367.946,79.947,358.928,79.947z M359.355,36.787
	c7.934,0,11.908,4.956,11.908,14.896c0,10.462-3.939,15.711-11.805,15.711c-8.255,0-12.391-5.104-12.391-15.305
	c0-4.868,1.088-8.642,3.234-11.316C352.447,38.113,355.463,36.787,359.355,36.787z M476.906,78.656H460.52V48.349
	c0-7.7-2.839-11.563-8.52-11.563c-2.701,0-4.9,1.15-6.604,3.471c-1.704,2.318-2.556,5.206-2.556,8.66v29.739h-16.419V48.032
	c0-7.492-2.807-11.245-8.378-11.245c-2.804,0-5.06,1.097-6.728,3.309c-1.687,2.215-2.539,5.228-2.539,9.037v29.524h-16.421V25.524
	h16.421v8.303h0.212c1.705-2.833,4.08-5.154,7.153-6.924c3.072-1.788,6.427-2.674,10.068-2.674c7.524,0,12.671,3.295,15.443,9.901
	c4.065-6.607,10.012-9.901,17.892-9.901c11.575,0,17.362,7.118,17.362,21.376V78.656z M527.904,78.656h-15.548v-7.637h-0.213
	c-3.57,5.951-8.859,8.928-15.852,8.928c-5.183,0-9.249-1.453-12.211-4.374c-2.966-2.921-4.441-6.836-4.441-11.707
	c0-10.307,6.127-16.261,18.359-17.855l14.467-1.912c0-5.806-3.164-8.716-9.478-8.716c-6.339,0-12.377,1.884-18.091,5.654V28.691
	c2.288-1.185,5.413-2.212,9.39-3.118c3.956-0.903,7.58-1.344,10.843-1.344c15.181,0,22.775,7.563,22.775,22.67V78.656z
	 M512.465,57.065c0,3.259-0.979,5.947-2.913,8.074c-1.948,2.127-4.455,3.189-7.544,3.189c-2.221,0-3.978-0.603-5.289-1.788
	c-1.298-1.185-1.938-2.723-1.938-4.586c0-4.127,2.662-6.533,8.008-7.228l9.676-1.242V57.065z M574.946,76.741
	c-3.702,2.145-9.068,3.206-16.061,3.206c-8.185,0-14.803-2.462-19.866-7.418c-5.055-4.945-7.597-11.319-7.597-19.15
	c0-9.034,2.715-16.134,8.135-21.34c5.43-5.206,12.688-7.809,21.778-7.809c6.264,0,10.811,0.832,13.611,2.48v13.919
	c-3.423-2.568-7.255-3.841-11.48-3.841c-4.726,0-8.449,1.365-11.221,4.127c-2.75,2.744-4.133,6.533-4.133,11.386
	c0,4.691,1.33,8.395,3.96,11.069c2.623,2.695,6.261,4.025,10.861,4.025c4.101,0,8.096-1.28,12.013-3.845V76.741z M633,78.67h-19.71
	l-16.998-26.3h-0.212v26.3h-16.411V0.18h16.411v49.965h0.212l15.863-24.494h19.48L612.562,50.55L633,78.67z"/>
</svg>
