<?xml version="1.0" encoding="iso-8859-1"?>
<!-- Generator: Adobe Illustrator 30.3.0, SVG Export Plug-In . SVG Version: 9.03 Build 0)  -->
<svg version="1.1" id="Layer_1" xmlns="http://www.w3.org/2000/svg" xmlns:xlink="http://www.w3.org/1999/xlink" x="0px" y="0px"
	 width="595.336px" height="228.999px" viewBox="0 0 595.336 228.999" enable-background="new 0 0 595.336 228.999"
	 xml:space="preserve">
<g>
	<path fill="#0000FF" d="M43.907,107.548c-4.42-2.089-6.991-3.374-6.991-8.195c0-3.616,2.008-5.384,5.223-5.384
		c3.937,0,6.187,2.892,6.589,8.035h7.553c-0.322-11.409-6.187-18.159-14.141-18.159c-7.473,0-12.857,5.142-12.857,16.391
		c0,10.446,5.544,13.981,11.329,16.793c5.304,2.492,8.758,3.696,8.758,9.482c0,3.535-1.687,6.267-5.785,6.267
		c-4.821,0-7.794-3.455-7.874-10.125h-7.633c0.16,12.776,6.749,20.249,15.668,20.249c8.598,0,13.259-7.071,13.259-17.437
		C57.004,113.494,50.414,110.601,43.907,107.548z"/>
	<polygon fill="#0000FF" points="77.971,124.421 77.89,124.421 69.695,84.648 60.455,84.648 60.455,142.098 67.525,142.098 
		67.525,103.047 67.686,103.047 75.238,142.098 80.703,142.098 88.175,103.047 88.335,103.047 88.335,142.098 95.407,142.098 
		95.407,84.648 86.167,84.648 	"/>
	<path fill="#0000FF" d="M110.19,84.648l-13.017,57.45h7.955l2.492-12.695h12.775l2.41,12.695h8.115l-13.097-57.45H110.19z
		 M109.386,119.761l4.58-23.702h0.08l4.5,23.702H109.386z"/>
	<polygon fill="#0000FF" points="140.159,84.648 132.686,84.648 132.686,142.098 156.228,142.098 156.228,131.813 140.159,131.813 	
		"/>
	<polygon fill="#0000FF" points="165.628,84.648 158.155,84.648 158.155,142.098 181.698,142.098 181.698,131.813 165.628,131.813 	
		"/>
	<polygon fill="#0000FF" points="228.056,84.648 222.995,125.947 222.913,125.947 216.887,84.648 209.656,84.648 203.629,125.947 
		203.549,125.947 198.487,84.648 191.015,84.648 199.693,142.098 207.246,142.098 213.272,102.405 213.352,102.405 219.298,142.098 
		226.851,142.098 235.528,84.648 	"/>
	<path fill="#0000FF" d="M321.732,115.502v-0.16c4.098-1.526,6.83-6.508,6.83-14.223c0-10.525-4.42-16.471-12.053-16.471h-15.587
		v57.45h7.473v-20.891h6.669c7.714,0,4.58,18.481,6.187,20.891h7.794v-0.724C327.116,140.41,330.169,117.993,321.732,115.502z
		 M314.983,110.922h-6.589V94.933h6.589c4.178,0,6.107,2.572,6.107,7.874C321.09,108.271,319,110.922,314.983,110.922z"/>
	<polygon fill="#0000FF" points="340.048,84.648 332.575,84.648 332.575,142.098 356.119,142.098 356.119,131.813 340.048,131.813 	
		"/>
	<path fill="#0000FF" d="M372.508,84.648h-14.463v57.45h14.865c9.562,0,15.025-10.205,15.025-28.685
		C387.935,94.933,382.15,84.648,372.508,84.648z M371.785,131.813h-6.268V94.933h6.268c6.347,0,8.517,7.794,8.517,18.481
		S378.132,131.813,371.785,131.813z"/>
	<polygon fill="#0000FF" points="418.705,124.421 418.625,124.421 410.429,84.648 401.188,84.648 401.188,142.098 408.26,142.098 
		408.26,103.047 408.421,103.047 415.973,142.098 421.437,142.098 428.91,103.047 429.07,103.047 429.07,142.098 436.141,142.098 
		436.141,84.648 426.902,84.648 	"/>
	<polygon fill="#0000FF" points="448.673,117.672 464.342,117.672 464.342,107.387 448.673,107.387 448.673,94.933 466.672,94.933 
		466.672,84.648 441.201,84.648 441.201,142.098 467.073,142.098 467.073,131.813 448.673,131.813 	"/>
	<path fill="#0000FF" d="M484.909,84.648h-14.463v57.45h14.865c9.561,0,15.025-10.205,15.025-28.685
		C500.336,94.933,494.552,84.648,484.909,84.648z M484.186,131.813h-6.267V94.933h6.267c6.348,0,8.518,7.794,8.518,18.481
		S490.534,131.813,484.186,131.813z"/>
	<rect x="504.109" y="84.648" fill="#0000FF" width="7.473" height="57.45"/>
	<path fill="#0000FF" d="M526.285,84.648l-13.016,57.45h7.955l2.49-12.695h12.775l2.41,12.695h8.116l-13.097-57.45H526.285z
		 M525.483,119.761l4.579-23.702h0.081l4.499,23.702H525.483z"/>
	<polygon fill="#0000FF" points="541.198,85.812 545.393,85.812 545.393,97.911 548.393,97.911 548.393,85.812 552.556,85.812 
		552.556,83.173 541.198,83.173 	"/>
	<polygon fill="#0000FF" points="564.367,83.173 561.076,93.377 561.043,93.377 557.752,83.173 554.041,83.173 554.041,97.911 
		556.881,97.911 556.881,87.894 556.946,87.894 559.979,97.911 562.172,97.911 565.173,87.894 565.238,87.894 565.238,97.911 
		568.078,97.911 568.078,83.173 	"/>
	<path fill="#0000FF" d="M277.781,83.406c-3.304-1.153-6.758-1.756-10.255-1.855c-12.987-0.366-25.204,6.737-30.797,18.435
		c-4.604,9.629-3.791,20.999,2.091,29.903c3.46,5.237,8.378,9.355,14.165,11.899c14.446,6.35,31.7,1.843,40.825-11.023
		c7.335-10.342,7.545-24.024,0.54-34.577C290.416,90.259,284.573,85.777,277.781,83.406z M291.338,96.575
		c0.272,1.82,0.151,3.717-0.487,5.437c-0.077,0.209-0.378,0.39-0.541,0.401c-0.196,0.012-0.523-0.102-0.693-0.287
		c-1.939-2.12-4.036-4.02-6.328-5.756c-0.425-0.322-0.581-0.848-0.438-1.333c0.514-1.737,0.004-2.606,0.527-3.076
		c0.17-0.153,0.519-0.191,0.78-0.09c2.258,0.865,4.364,2.032,6.303,3.475C290.887,95.661,291.254,96.016,291.338,96.575z
		 M274.678,89.623c2.171,0.208,4.262,0.565,6.343,1.202c1.366,0.418,1.631,2.452,1.139,3.628c-0.207,0.495-0.747,0.566-1.152,0.308
		c-2.452-1.565-4.972-2.908-7.653-4.045c-0.351-0.149-0.717-0.356-0.89-0.675c-0.105-0.194,0.221-0.437,0.404-0.435L274.678,89.623z
		 M273.982,88.4c0.627-0.632,1.951-0.497,2.999-0.63c1.174-0.15,2.291,0.22,2.906,1.294c-0.013,0.294-0.313,0.53-0.653,0.473
		l-4.398-0.727C274.486,88.752,274.229,88.631,273.982,88.4z M280.72,95.495c0.48,0.325,0.499,0.98,0.14,1.375
		c-0.81,0.89-1.706,1.621-2.744,2.135c-0.469,0.233-0.997,0.046-1.29-0.374c-1.663-2.385-3.465-4.591-5.484-6.68
		c-0.211-0.219-0.466-0.609-0.312-0.864c0.172-0.284,0.638-0.203,0.952-0.086C275.067,92.158,278.004,93.657,280.72,95.495z
		 M275.917,98.848c0.144,0.209,0.204,0.561,0.156,0.772c-0.044,0.19-0.249,0.479-0.538,0.587c-2.439,0.914-4.947,1.344-7.514,1.47
		c-0.487,0.024-1.026-0.412-1.026-0.926l-0.005-10.12c0-0.25,0.228-0.543,0.391-0.619c0.206-0.096,0.572-0.007,0.793,0.177
		C271.173,92.674,273.708,95.639,275.917,98.848z M268.035,102.436c2.798-0.156,5.502-0.677,8.139-1.628
		c0.482-0.174,1.021,0.029,1.299,0.463c1.92,2.999,3.45,6.204,4.793,9.527c0.19,0.469-0.001,1.004-0.473,1.283
		c-3.819,2.256-9.177,3.41-13.648,3.606c-0.594,0.026-1.157-0.333-1.157-0.955l-0.002-11.356
		C267.111,102.809,267.454,102.469,268.035,102.436z M278.323,100.944c-0.287-0.465-0.132-1.014,0.34-1.315
		c1.165-0.746,2.174-1.615,3.174-2.584c0.403-0.39,1.128-0.015,1.491,0.272c2.275,1.804,4.42,3.684,6.253,5.921
		c0.346,0.421,0.4,0.974,0.126,1.466c-1.32,2.372-3.235,4.346-5.503,5.91c-0.374,0.258-0.99,0.116-1.169-0.308
		C281.678,107.084,280.178,103.947,278.323,100.944z M285.071,88.645c1.282,0.594,2.254,1.633,3.316,2.523
		c0.69,0.579,2.095,1.919,1.87,2.434c-0.059,0.134-0.437,0.264-0.636,0.149c-2.189-1.266-4.357-2.337-6.713-3.179
		c-0.453-0.162-0.792-0.522-1.061-0.876l-0.695-0.913c-0.086-0.113-0.076-0.452-0.02-0.566
		C281.397,87.677,284.206,88.244,285.071,88.645z M277.136,84.523c1.119,0.391,2.173,0.809,3.241,1.311
		c0.296,0.139,0.629,0.391,0.831,0.685c0.387,0.563-1.744,0.728-2.788,0.263l-2.717-1.209c-0.191-0.085-0.393-0.341-0.405-0.507
		C275.254,84.477,276.319,84.238,277.136,84.523z M275.169,86.676c0.006,0.128-0.234,0.397-0.4,0.418l-4.55,0.595
		c-0.188,0.025-0.476-0.08-0.535-0.23c-0.226-0.576,2.049-1.544,3.022-1.818c0.768,0.095,1.481,0.27,2.167,0.586
		C275.008,86.372,275.163,86.548,275.169,86.676z M267.987,82.859c1.764,0.043,3.507,0.207,5.203,0.647
		c0.152,0.039,0.331,0.303,0.362,0.431c0.093,0.383-0.694,0.763-1.169,0.708l-4.545-0.526c-0.365-0.042-0.652-0.416-0.645-0.665
		C267.203,83.029,267.57,82.848,267.987,82.859z M266.268,114.502c0,0.34-0.169,0.718-0.307,0.889
		c-0.201,0.251-0.56,0.312-0.927,0.303c-4.687-0.123-9.335-1.181-13.501-3.289c-0.582-0.295-0.851-0.893-0.624-1.469
		c1.312-3.33,2.879-6.53,4.762-9.541c0.326-0.521,0.905-0.605,1.399-0.434c2.609,0.9,5.252,1.375,7.991,1.486
		c0.319,0.013,0.705,0.145,0.878,0.338c0.182,0.203,0.327,0.581,0.327,0.912L266.268,114.502z M254.485,99.827
		c0.414,0.25,0.593,0.8,0.333,1.236c-1.797,3.005-3.344,6.093-4.647,9.38c-0.195,0.213-0.374,0.399-0.514,0.486
		c-0.157,0.098-0.602,0.027-0.775-0.091c-2.17-1.481-4.073-3.322-5.464-5.542c-0.435-0.694-0.393-1.393,0.153-2.011
		c1.93-2.186,4.016-4.211,6.355-5.961c0.378-0.283,0.954-0.373,1.323,0C252.221,98.304,253.291,99.105,254.485,99.827z
		 M252.154,95.732c2.847-1.967,5.927-3.567,9.181-4.758c0.331-0.121,0.88-0.165,0.902,0.265c0.016,0.323-0.369,0.746-0.63,1.015
		c-1.948,2.014-3.641,4.153-5.269,6.469c-0.292,0.415-0.786,0.675-1.24,0.48c-1.16-0.498-2.164-1.261-3.027-2.196
		C251.776,96.688,251.734,96.023,252.154,95.732z M266.265,100.495c0,0.553-0.286,1.199-0.974,1.191
		c-2.597-0.028-5.119-0.493-7.546-1.299c-0.277-0.092-0.527-0.334-0.629-0.524c-0.136-0.253-0.085-0.582,0.094-0.848
		c2.196-3.27,4.782-6.228,7.776-8.776c0.275-0.234,0.62-0.366,0.874-0.192c0.258,0.177,0.403,0.483,0.403,0.846L266.265,100.495z
		 M266.054,86.86c-0.088,0.155-0.489,0.268-0.702,0.183c-0.74-0.298-2.112-1.005-2.17-1.506c-0.075-0.64,2.373-0.954,2.846-0.268
		C266.28,85.636,266.287,86.446,266.054,86.86z M260.235,83.45c1.618-0.356,3.229-0.547,4.888-0.594
		c0.439-0.012,0.797,0.133,0.937,0.574c-0.111,0.469-0.51,0.693-1.026,0.716c-1.454,0.064-2.814,0.231-4.22,0.424
		c-0.481,0.066-1.056-0.132-1.161-0.629C259.632,83.722,260.012,83.499,260.235,83.45z M257.747,86.441
		c0.464-0.514,2.323-1.01,3.087-0.73c0.876,0.321,2.751,1.102,2.687,1.679c-0.017,0.154-0.267,0.334-0.524,0.302l-4.771-0.6
		c-0.114-0.014-0.32-0.149-0.41-0.204C257.724,86.833,257.668,86.529,257.747,86.441z M259.371,88.446
		c-0.233,0.211-0.544,0.331-0.87,0.389l-5.175,0.926c-0.121,0.022-0.4-0.036-0.505-0.075c-0.64-0.242,0.403-1.342,1.374-1.752
		c0.711-0.3,1.466-0.178,2.215-0.147C257.321,87.825,258.988,87.84,259.371,88.446z M252.298,86.154
		c1.345-0.746,2.755-1.348,4.255-1.725c0.427-0.108,1.014,0.069,1.149,0.46c0.112,0.325-0.264,0.58-0.525,0.679
		c-0.866,0.332-1.646,0.664-2.478,1.083c-0.781,0.394-1.776,0.534-2.592,0.211C251.827,86.752,252.084,86.273,252.298,86.154z
		 M259.562,89.581c0.363-0.024,0.927,0.023,1.151,0.249c0.074,0.414-0.41,0.698-0.762,0.848c-2.805,1.194-5.441,2.569-8.003,4.275
		c-0.215,0.143-0.534,0.199-0.709,0.166c-0.807-0.15-1.075-1.876-0.596-3.111c0.203-0.523,0.631-0.84,1.169-1.007
		C254.339,90.218,256.912,89.758,259.562,89.581z M242.64,93.475c1.56-1.79,3.279-3.488,5.329-4.746
		c0.922-0.566,2.078-0.527,3.108-0.715c0.201-0.037,0.465,0.17,0.556,0.298c0.102,0.144,0.042,0.43-0.077,0.586l-0.807,1.058
		c-0.326,0.427-0.679,0.82-1.245,1.034c-2.054,0.779-3.904,1.727-5.752,2.845c-0.328,0.198-0.767,0.504-1.119,0.428
		C242.304,94.191,242.448,93.695,242.64,93.475z M242.33,95.796c1.96-1.489,4.057-2.748,6.356-3.651
		c0.178-0.07,0.568-0.022,0.688,0.081c0.512,0.438,0.099,1.485,0.645,3.059c0.182,0.525-0.035,1.039-0.507,1.404
		c-2.225,1.721-4.23,3.622-6.156,5.721c-1.551,1.69-2.074-2.738-2.051-4.584C241.316,96.911,241.624,96.332,242.33,95.796z
		 M235.505,115.692c-0.347-0.329-0.421-0.827-0.444-1.312c-0.236-4.929,0.798-9.831,3.016-14.24
		c0.331-0.657,0.842-1.107,1.323-1.627c0.181-0.195,0.486-0.349,0.728-0.267c0.19,0.064,0.424,0.368,0.446,0.621
		c0.126,1.493,0.407,2.896,0.951,4.288c0.253,0.648,0.188,1.249-0.233,1.817c-2.219,2.992-3.95,6.245-5.045,9.847
		C236.119,115.239,235.872,115.643,235.505,115.692z M245.812,135.322c-0.127,0.061-0.499,0.069-0.621-0.037
		c-3.92-3.42-6.86-7.784-8.575-12.702c-0.287-0.824-0.514-1.944-0.008-1.901c0.132,0.011,0.414,0.11,0.517,0.245
		c2.296,2.986,5.052,5.459,8.251,7.458c0.315,0.197,0.589,0.608,0.594,0.944l0.043,2.564l0.072,1.686l0.03,1.294
		C246.121,135.043,245.939,135.261,245.812,135.322z M245.85,127.262c-0.184,0.112-0.647,0.12-0.889-0.042
		c-3.288-2.19-6.419-5.143-8.353-8.566c-0.617-1.091,0.541-4.375,1.117-5.85c0.986-2.526,2.298-4.858,3.9-7.028
		c0.134-0.182,0.499-0.304,0.67-0.276c0.171,0.028,0.48,0.196,0.604,0.387c1.516,2.335,3.496,4.191,5.802,5.747
		c0.411,0.277,0.686,0.831,0.51,1.343c-1.521,4.426-2.546,8.957-3,13.627C246.186,126.872,246.011,127.165,245.85,127.262z
		 M265.974,143.037c-0.196,0.235-0.572,0.309-0.941,0.292c-6.185-0.282-12.193-2.314-17.205-5.932
		c-0.362-0.261-0.645-0.675-0.712-1.09c-0.318-1.974-0.413-3.926-0.321-5.917c0.01-0.216,0.236-0.471,0.366-0.579
		c0.135-0.112,0.527-0.138,0.714-0.046c5.57,2.738,11.14,3.92,17.316,4.13c0.689,0.023,1.069,0.515,1.069,1.209l0.005,7.031
		C266.264,142.476,266.128,142.851,265.974,143.037z M265.949,132.812c-0.246,0.267-0.584,0.334-0.991,0.322
		c-4.264-0.124-8.47-0.82-12.503-2.236c-1.739-0.611-3.398-1.28-4.967-2.215c-0.637-0.38-0.586-1.154-0.52-1.825
		c0.449-4.544,1.446-8.962,2.949-13.253c0.198-0.566,0.822-0.735,1.337-0.486c4.585,2.217,8.907,3.134,13.991,3.354
		c0.639,0.028,1.02,0.53,1.02,1.197l0.003,14.191C266.27,132.256,266.122,132.623,265.949,132.812z M267.575,85.038
		c0.722-0.278,2.668-0.005,2.377,0.619c-0.256,0.549-0.924,0.755-1.36,1.052c-0.398,0.265-0.787,0.466-1.273,0.266
		C266.787,86.508,266.831,85.324,267.575,85.038z M266.983,117.613c0-0.38,0.145-0.718,0.385-0.909
		c0.265-0.21,0.631-0.269,0.993-0.286c2.694-0.124,5.277-0.557,7.885-1.269c2.064-0.564,3.958-1.391,5.859-2.299
		c0.52-0.248,1.024,0.189,1.185,0.655c1.518,4.411,2.566,8.923,2.99,13.575c0.068,0.75-0.253,1.256-0.909,1.606
		c-5.302,2.829-11.279,4.245-17.343,4.434c-0.582,0.018-1.038-0.411-1.038-0.963L266.983,117.613z M286.465,132.372l-0.263,3.511
		c-0.056,0.746-0.378,1.243-0.992,1.671c-4.97,3.463-10.823,5.487-16.94,5.773c-0.644,0.03-1.267-0.237-1.268-0.904l-0.007-7.517
		c-0.001-0.708,0.652-1.031,1.28-1.054c5.965-0.222,11.678-1.551,17.014-4.258c0.406-0.206,0.947-0.119,1.068,0.345
		C286.563,130.734,286.527,131.55,286.465,132.372z M284.006,113.003c-0.262-0.747-0.064-1.29,0.578-1.73
		c2.231-1.529,4.095-3.431,5.51-5.723c0.14-0.227,0.483-0.395,0.69-0.377c0.189,0.016,0.513,0.19,0.673,0.407
		c2.211,2.983,3.973,6.305,4.927,9.923c0.195,0.74,0.467,1.559,0.249,2.278c-0.923,2.047-2.372,3.746-3.872,5.372l-0.688,0.687
		c-0.909,0.909-3.999,3.672-4.658,3.197c-0.136-0.098-0.375-0.33-0.399-0.557C286.54,121.874,285.544,117.386,284.006,113.003z
		 M296.94,121.573c-1.606,5.254-4.662,9.946-8.746,13.602c-0.151,0.135-0.412,0.187-0.564,0.205
		c-0.138,0.016-0.474-0.121-0.473-0.321l0.012-1.905l0.062-4.031c0.009-0.554,0.493-0.942,0.927-1.226
		c3.128-2.047,5.796-4.577,7.94-7.619c0.094-0.134,0.361-0.255,0.486-0.285C296.97,119.901,297.259,120.526,296.94,121.573z
		 M298.182,112.04l-0.003,1.783c-0.001,0.455-0.042,1.019-0.577,1.302c-0.184,0.098-0.573-0.196-0.649-0.438
		c-1.15-3.647-2.954-6.993-5.271-10.046c-0.374-0.493-0.525-1.055-0.326-1.648c0.535-1.598,0.839-3.181,0.896-4.872
		c0.006-0.166,0.243-0.405,0.372-0.476c0.555-0.306,2.072,1.555,2.517,2.446C297.007,103.824,298.035,107.874,298.182,112.04z"/>
</g>
</svg>
