<?xml version="1.0" encoding="iso-8859-1"?>
<!-- Generator: Adobe Illustrator 30.3.0, SVG Export Plug-In . SVG Version: 9.03 Build 0)  -->
<svg version="1.1" id="TIDAL" xmlns="http://www.w3.org/2000/svg" xmlns:xlink="http://www.w3.org/1999/xlink" x="0px" y="0px"
	 width="752.253px" height="99.563px" viewBox="0 0 752.253 99.563" enable-background="new 0 0 752.253 99.563"
	 xml:space="preserve">
<g>
	<g>
		<g>
			<path fill="#FFFFFF" d="M273.716,97.535h-19.309v-68.49h-24.973v-16.55h69.255v16.55h-24.973V97.535z"/>
			<path fill="#FFFFFF" d="M375.894,97.535h-19.423V12.496h19.423V97.535z"/>
			<path fill="#FFFFFF" d="M718.66,80.754h33.593v16.781h-53.016v-85.04h19.423V80.754z"/>
		</g>
		<path fill="#FFFFFF" d="M440.554,12.495h31.467c23.216,0,46.316,12.293,46.316,42.289c0,28.273-22.642,42.749-45.167,42.749
			l-32.616,0.001V12.495z M459.401,80.868h12.045c16.204,0,27.009-10.109,27.009-26.199c0-15.285-10.919-25.624-26.55-25.624
			h-12.504V80.868z"/>
		<path fill="#FFFFFF" d="M626.131,97.535h21.35l-35.032-85.04h-20.052l-35.376,85.04h20.773l6.269-16.779h35.855L626.131,97.535z
			 M589.267,65.648l12.81-33.26l12.69,33.26H589.267z"/>
	</g>
	<g>
		
			<rect x="57.075" y="7.287" transform="matrix(0.7071 -0.7071 0.7071 0.7071 4.2746 60.0945)" fill="#FFFFFF" width="35.2" height="35.2"/>
		
			<rect x="57.073" y="57.07" transform="matrix(0.7071 -0.7071 0.7071 0.7071 -30.9286 74.6768)" fill="#FFFFFF" width="35.203" height="35.203"/>
		
			<rect x="7.291" y="7.289" transform="matrix(0.7071 -0.7071 0.7071 0.7071 -10.3088 24.8911)" fill="#FFFFFF" width="35.201" height="35.201"/>
		
			<rect x="106.855" y="7.289" transform="matrix(0.7071 -0.7071 0.7071 0.7071 18.8562 95.2981)" fill="#FFFFFF" width="35.201" height="35.201"/>
	</g>
</g>
<g>
</g>
<g>
</g>
<g>
</g>
<g>
</g>
<g>
</g>
<g>
</g>
</svg>
